# xmcd
#
# Track frame offsets:
#	150
#	41340
#	71300
#	93907
#	124033
#	137342
#
# Disc length: 2065 seconds
#
# Revision: 1
# Processed by: cddbd v1.5.2PL0 Copyright (c) Steve Scherf et al.
# Submitted via: audiograbber 1.83.01
#
DISCID=41080f06
DTITLE=Grateful Dead - 71-08-05A Hollywood Palladium, Hollywood CA
DYEAR=1900
DGENRE=
TTITLE0=Truckin'
TTITLE1=Loser
TTITLE2=Sugar Magnolia
TTITLE3=GDTRFB
TTITLE4=Not Fade Away
TTITLE5=Johnny B Goode
EXTD=
EXTT0=
EXTT1=
EXTT2=
EXTT3=
EXTT4=
EXTT5=
PLAYORDER=
